<?xml version="1.0" encoding="utf-8"?>
<svg version="1.0" width="512.000000pt" height="512.000000pt" viewBox="0 0 512.000000 512.000000" preserveAspectRatio="xMidYMid meet" xmlns="http://www.w3.org/2000/svg">
  <g transform="translate(0.000000,512.000000) scale(0.100000,-0.100000)" fill="#000000" stroke="none">
    <path d="M 1865 5114 C 1658 5094 1501 5062 1343 5006 C 631 4758 131 4146 19 3385 C 0 3259 3 2952 24 2821 C 93 2384 286 2001 588 1703 C 974 1320 1461 1120 2005 1120 C 2382 1120 2769 1231 3070 1426 C 3109 1451 3143 1470 3144 1468 C 3145 1467 3654 1975 3652 1976 C 3650 1977 3671 2014 3699 2058 C 3897 2374 4000 2736 4000 3115 C 4000 3656 3802 4140 3424 4526 C 3127 4828 2743 5024 2310 5095 C 2216 5110 1943 5122 1865 5114 Z M 2218 4595 C 2454 4560 2696 4462 2880 4327 C 3403 3943 3619 3278 3423 2655 C 3313 2306 3045 1984 2713 1803 C 2359 1610 1908 1572 1525 1702 C 555 2033 196 3217 819 4029 C 1100 4394 1526 4605 1993 4609 C 2063 4609 2164 4603 2218 4595 Z"/>
  </g>
</svg>